<svg width="272" height="242" viewBox="0 0 272 242" fill="none" xmlns="http://www.w3.org/2000/svg">
<mask id="path-1-inside-1_751_103" fill="white">
<path d="M0 121C0 54.1735 54.1735 0 121 0H151C217.826 0 272 54.1735 272 121C272 187.826 217.826 242 151 242H121C54.1735 242 0 187.826 0 121Z"/>
</mask>
<path d="M0 0H272H0ZM272 121C272 204.395 204.395 272 121 272H106C30.8893 272 -30 211.111 -30 136L30 121C30 171.258 70.7421 212 121 212H151C217.826 212 272 171.258 272 121ZM106 272C30.8893 272 -30 211.111 -30 136C-30 60.8893 30.8893 0 106 0H121C70.7421 0 30 54.1735 30 121C30 171.258 70.7421 212 121 212L106 272ZM272 0V242V0Z" fill="#3F54D1" fill-opacity="0.02" mask="url(#path-1-inside-1_751_103)"/>
</svg>
