<svg width="120" height="48" viewBox="0 0 120 48" fill="none" xmlns="http://www.w3.org/2000/svg">
<g id="yuslih">
<path d="M9.22503 47.61C7.51502 47.61 6.04502 47.085 4.81502 46.035C3.58502 45.015 2.97002 43.515 2.97002 41.535C2.97002 39.105 4.20002 36.735 6.66002 34.425C4.92002 34.275 3.52502 33.705 2.47502 32.715C1.42502 31.725 0.900024 30.33 0.900024 28.53C0.900024 27.69 1.00502 26.43 1.21502 24.75C1.42502 23.07 1.65002 21.255 1.89002 19.305C2.13002 17.355 2.38502 15.285 2.65502 13.095C3.58502 12.765 4.44002 12.6 5.22002 12.6C6.00002 12.6 6.58502 12.63 6.97502 12.69C7.36502 12.75 7.74003 12.975 8.10002 13.365C8.46002 13.755 8.64002 14.31 8.64002 15.03L7.15502 26.505C7.09502 26.985 7.06502 27.315 7.06502 27.495C7.06502 29.265 7.87503 30.15 9.49503 30.15C10.965 30.15 12.165 29.46 13.095 28.08C13.185 27.39 13.41 25.41 13.77 22.14C14.13 18.84 14.43 16.275 14.67 14.445C14.94 13.875 15.495 13.425 16.335 13.095C17.205 12.765 17.91 12.6 18.45 12.6C19.41 12.6 20.28 12.72 21.06 12.96L18.945 29.565C22.455 30.195 24.555 32.61 25.245 36.81C25.125 37.38 24.555 38.28 23.535 39.51C22.935 35.76 21.285 33.48 18.585 32.67L17.865 38.295C17.535 40.995 16.68 43.215 15.3 44.955C13.92 46.725 11.895 47.61 9.22503 47.61ZM6.48002 40.68C6.48002 41.67 6.72002 42.405 7.20002 42.885C7.68002 43.365 8.31003 43.605 9.09002 43.605C9.90003 43.605 10.515 43.275 10.935 42.615C11.355 41.955 11.685 40.635 11.925 38.655L12.51 33.705C8.58003 35.745 6.57002 38.07 6.48002 40.68Z" fill="#252528"/>
<path d="M43.4398 13.05C42.2098 22.77 41.5948 27.945 41.5948 28.575C41.5948 29.775 42.0298 30.375 42.8998 30.375C43.6798 30.375 44.5198 29.85 45.4198 28.8C46.3498 27.72 47.0848 26.115 47.6248 23.985C48.6148 25.065 49.2148 25.905 49.4248 26.505C48.7348 29.415 47.6398 31.47 46.1398 32.67C44.6398 33.87 43.0948 34.47 41.5048 34.47C38.8948 34.47 37.1398 33.465 36.2398 31.455C34.6798 33.465 32.5948 34.47 29.9848 34.47C27.8248 34.47 26.1598 33.93 24.9898 32.85C23.8198 31.77 23.2348 30.36 23.2348 28.62C23.2348 28.2 23.3098 27.465 23.4598 26.415C24.1498 20.835 24.6748 16.395 25.0348 13.095C25.9648 12.765 26.8198 12.6 27.5998 12.6C28.3798 12.6 28.9648 12.63 29.3548 12.69C29.7448 12.75 30.1198 12.975 30.4798 13.365C30.8398 13.755 31.0198 14.31 31.0198 15.03L29.5348 26.505C29.4748 26.865 29.4448 27.195 29.4448 27.495C29.4448 29.265 30.2548 30.15 31.8748 30.15C33.3748 30.15 34.6198 29.415 35.6098 27.945C35.6098 27.615 35.6398 27.09 35.6998 26.37L37.1848 14.4C37.3948 13.89 37.8448 13.47 38.5348 13.14C39.2248 12.78 40.0798 12.6 41.0998 12.6C42.1498 12.6 42.9298 12.75 43.4398 13.05Z" fill="#252528"/>
<path d="M64.9874 20.475C67.3574 22.215 68.5424 24.27 68.5424 26.64C68.5424 29.01 67.6124 30.915 65.7524 32.355C63.8924 33.795 61.5524 34.515 58.7324 34.515C56.9024 34.515 55.3724 34.065 54.1424 33.165C52.9424 32.235 52.3424 31.095 52.3424 29.745C52.3424 28.395 52.7924 27.33 53.6924 26.55C54.5924 25.74 55.7174 25.245 57.0674 25.065C56.4374 25.965 56.1224 26.835 56.1224 27.675C56.1224 28.485 56.4074 29.145 56.9774 29.655C57.5474 30.165 58.2674 30.42 59.1374 30.42C60.0074 30.42 60.7274 30.105 61.2974 29.475C61.8674 28.815 62.1524 28.065 62.1524 27.225C62.1524 25.845 61.5074 24.615 60.2174 23.535C59.4374 22.905 58.5974 22.32 57.6974 21.78C56.7974 21.21 56.3174 20.91 56.2574 20.88C56.1374 20.79 56.0174 20.715 55.8974 20.655C55.3574 21.285 54.5774 22.155 53.5574 23.265C52.5374 24.345 51.7274 25.215 51.1274 25.875C49.4474 27.705 48.5024 29.235 48.2924 30.465C48.2324 30.705 48.2024 31.17 48.2024 31.86C48.2024 32.52 48.3974 33.21 48.7874 33.93C49.2074 34.65 49.7024 35.19 50.2724 35.55C50.8424 35.91 51.3974 36.195 51.9374 36.405C52.5074 36.645 52.9874 36.81 53.3774 36.9C53.7974 36.99 54.0074 37.05 54.0074 37.08C54.0074 37.29 53.6774 37.53 53.0174 37.8C51.7874 38.25 50.4974 38.475 49.1474 38.475C47.8274 38.475 46.5374 37.995 45.2774 37.035C43.5674 35.715 42.7124 33.96 42.7124 31.77C42.7124 30.42 43.0574 29.085 43.7474 27.765C44.9774 25.425 47.8574 22.215 52.3874 18.135C51.2774 17.025 50.7224 15.84 50.7224 14.58C50.7224 13.32 51.1874 12.255 52.1174 11.385C53.0774 10.515 54.2024 10.08 55.4924 10.08C56.6624 10.08 57.6824 10.545 58.5524 11.475C59.1224 12.105 59.4074 12.9 59.4074 13.86C59.4074 14.82 59.0924 15.9 58.4624 17.1C61.6724 18.54 63.8474 19.665 64.9874 20.475ZM55.2224 15.39C55.9424 14.64 56.3024 14.1 56.3024 13.77C56.3024 13.02 55.9724 12.615 55.3124 12.555C54.5624 12.555 54.1874 12.975 54.1874 13.815C54.1874 14.325 54.5324 14.85 55.2224 15.39Z" fill="#252528"/>
<path d="M75.3666 34.56C73.5366 34.56 72.0966 34.05 71.0466 33.03C69.9966 31.98 69.4716 30.555 69.4716 28.755C69.4716 28.275 70.2816 21.15 71.9016 7.38C72.3216 3.84 73.4466 1.605 75.2766 0.674999C76.1166 0.225 77.1216 0 78.2916 0C82.2516 0 84.2316 1.83 84.2316 5.49C84.2316 5.79 84.2166 6.105 84.1866 6.435C83.8866 10.455 81.3666 14.55 76.6266 18.72C76.4766 20.19 76.3116 21.615 76.1316 22.995C75.7716 26.085 75.5916 27.795 75.5916 28.125C75.5916 29.685 76.2666 30.465 77.6166 30.465C79.0866 30.465 80.4516 29.625 81.7116 27.945C83.0016 26.235 83.9916 24.06 84.6816 21.42C84.9516 21.51 85.3266 21.765 85.8066 22.185C86.2866 22.575 86.6166 22.92 86.7966 23.22C86.3166 25.71 85.2366 28.095 83.5566 30.375C82.7166 31.545 81.6516 32.505 80.3616 33.255C78.8916 34.125 77.2266 34.56 75.3666 34.56ZM77.1216 14.22C79.8816 11.19 81.2616 8.475 81.2616 6.075C81.2616 4.635 80.7216 3.915 79.6416 3.915C78.9516 3.975 78.4866 4.425 78.2466 5.265C78.0366 6.105 77.8266 7.47 77.6166 9.36C77.4366 11.25 77.3166 12.42 77.2566 12.87L77.1216 14.22Z" fill="#252528"/>
<path d="M86.5115 1.125C87.2015 0.404999 88.0415 0.0449991 89.0315 0.0449991C90.0215 0.0449991 90.8615 0.404999 91.5515 1.125C92.2715 1.815 92.6315 2.655 92.6315 3.645C92.6315 4.635 92.2715 5.475 91.5515 6.165C90.8615 6.855 90.0215 7.2 89.0315 7.2C88.0415 7.2 87.2015 6.855 86.5115 6.165C85.8215 5.475 85.4765 4.635 85.4765 3.645C85.4765 2.655 85.8215 1.815 86.5115 1.125ZM84.6665 14.31C84.9665 13.77 85.5365 13.365 86.3765 13.095C87.2165 12.795 88.0415 12.645 88.8515 12.645C89.6915 12.645 90.4265 12.75 91.0565 12.96C89.8865 21.99 89.3015 26.55 89.3015 26.64C89.1515 27.24 89.0765 27.75 89.0765 28.17C89.0765 28.56 89.1065 28.905 89.1665 29.205C89.2865 29.985 89.8265 30.375 90.7865 30.375C91.7765 30.375 92.6765 29.745 93.4865 28.485C94.3265 27.195 94.9565 25.74 95.3765 24.12C95.5865 24.24 95.9165 24.6 96.3665 25.2C96.8165 25.8 97.0865 26.25 97.1765 26.55C96.5765 28.95 95.5565 30.885 94.1165 32.355C92.6765 33.825 90.9515 34.56 88.9415 34.56C86.9315 34.56 85.4315 34.065 84.4415 33.075C83.4815 32.085 83.0015 30.81 83.0015 29.25C83.0015 28.92 83.0165 28.575 83.0465 28.215L84.6665 14.31Z" fill="#252528"/>
<path d="M105.792 29.115L106.872 19.17C106.872 18.36 106.662 17.685 106.242 17.145C105.822 16.605 105.147 16.335 104.217 16.335C103.287 16.335 102.492 16.71 101.832 17.46C101.202 18.18 100.737 19.14 100.437 20.34C100.227 22.05 99.9115 24.555 99.4915 27.855C99.0715 31.125 98.8015 33.255 98.6815 34.245H92.6965C94.8565 15.855 96.1615 4.56 96.6115 0.360001C97.2415 0.12 98.0965 0 99.1765 0C101.517 0 102.687 0.690001 102.687 2.07V2.34C102.177 7.05 101.637 11.19 101.067 14.76C102.657 13.32 104.457 12.6 106.467 12.6C108.477 12.6 110.067 13.11 111.237 14.13C112.407 15.15 112.992 16.44 112.992 18C112.992 18.42 112.902 19.2 112.722 20.34C112.032 24.84 111.687 27.48 111.687 28.26C111.687 29.67 112.152 30.375 113.082 30.375C113.862 30.375 114.687 29.865 115.557 28.845C116.457 27.795 117.177 26.19 117.717 24.03C118.737 25.11 119.352 25.965 119.562 26.595C118.002 31.815 115.242 34.425 111.282 34.425C109.422 34.425 108.042 33.855 107.142 32.715C106.242 31.575 105.792 30.375 105.792 29.115Z" fill="#252528"/>
</g>
</svg>
